<svg width="512" height="512" viewBox="0 0 512 512" fill="none" xmlns="http://www.w3.org/2000/svg">
  <!-- Background Circle with Gradient -->
  <defs>
    <linearGradient id="backgroundGradient" x1="0%" y1="0%" x2="100%" y2="100%">
      <stop offset="0%" style="stop-color:#3B82F6;stop-opacity:1" />
      <stop offset="50%" style="stop-color:#6366F1;stop-opacity:1" />
      <stop offset="100%" style="stop-color:#8B5CF6;stop-opacity:1" />
    </linearGradient>
    
    <linearGradient id="checkGradient" x1="0%" y1="0%" x2="100%" y2="100%">
      <stop offset="0%" style="stop-color:#10B981;stop-opacity:1" />
      <stop offset="100%" style="stop-color:#059669;stop-opacity:1" />
    </linearGradient>
    
    <linearGradient id="cardGradient" x1="0%" y1="0%" x2="100%" y2="100%">
      <stop offset="0%" style="stop-color:#FFFFFF;stop-opacity:1" />
      <stop offset="100%" style="stop-color:#F8FAFC;stop-opacity:1" />
    </linearGradient>
    
    <filter id="shadow" x="-20%" y="-20%" width="140%" height="140%">
      <feDropShadow dx="0" dy="4" stdDeviation="8" flood-color="#000000" flood-opacity="0.15"/>
    </filter>
    
    <filter id="innerShadow" x="-20%" y="-20%" width="140%" height="140%">
      <feDropShadow dx="0" dy="2" stdDeviation="4" flood-color="#000000" flood-opacity="0.1"/>
    </filter>
  </defs>
  
  <!-- Main Background Circle -->
  <circle cx="256" cy="256" r="240" fill="url(#backgroundGradient)" filter="url(#shadow)"/>
  
  <!-- Task Board Container -->
  <rect x="120" y="140" width="272" height="232" rx="20" fill="url(#cardGradient)" filter="url(#innerShadow)"/>
  
  <!-- Task Items -->
  <!-- Task 1 - Completed -->
  <rect x="140" y="170" width="232" height="36" rx="8" fill="#F0FDF4" stroke="#10B981" stroke-width="2"/>
  <circle cx="160" cy="188" r="8" fill="url(#checkGradient)"/>
  <path d="M156 188L159 191L164 184" stroke="white" stroke-width="2" stroke-linecap="round" stroke-linejoin="round"/>
  <rect x="180" y="182" width="80" height="4" rx="2" fill="#D1D5DB"/>
  <rect x="180" y="190" width="60" height="4" rx="2" fill="#D1D5DB"/>
  
  <!-- Task 2 - In Progress -->
  <rect x="140" y="220" width="232" height="36" rx="8" fill="#EFF6FF" stroke="#3B82F6" stroke-width="2"/>
  <circle cx="160" cy="238" r="8" fill="#3B82F6"/>
  <circle cx="160" cy="238" r="3" fill="white"/>
  <rect x="180" y="232" width="90" height="4" rx="2" fill="#374151"/>
  <rect x="180" y="240" width="70" height="4" rx="2" fill="#6B7280"/>
  
  <!-- Task 3 - To Do -->
  <rect x="140" y="270" width="232" height="36" rx="8" fill="#F9FAFB" stroke="#E5E7EB" stroke-width="2"/>
  <circle cx="160" cy="288" r="8" fill="none" stroke="#9CA3AF" stroke-width="2"/>
  <rect x="180" y="282" width="85" height="4" rx="2" fill="#374151"/>
  <rect x="180" y="290" width="65" height="4" rx="2" fill="#6B7280"/>
  
  <!-- Task 4 - Verified -->
  <rect x="140" y="320" width="232" height="36" rx="8" fill="#F5F3FF" stroke="#8B5CF6" stroke-width="2"/>
  <circle cx="160" cy="338" r="8" fill="url(#checkGradient)"/>
  <path d="M156 338L159 341L164 334" stroke="white" stroke-width="2" stroke-linecap="round" stroke-linejoin="round"/>
  <!-- Shield icon for verified -->
  <path d="M156 334L160 330L164 334V342C164 343 162 344 160 344C158 344 156 343 156 342V334Z" fill="#8B5CF6"/>
  <rect x="180" y="332" width="75" height="4" rx="2" fill="#D1D5DB"/>
  <rect x="180" y="340" width="55" height="4" rx="2" fill="#D1D5DB"/>
  
  <!-- Lightning bolt for real-time -->
  <path d="M380 120L365 140H375L370 160L385 140H375L380 120Z" fill="#FBBF24" filter="url(#shadow)"/>
  
  <!-- Floating Action Button (Plus) -->
  <circle cx="420" cy="420" r="32" fill="#10B981" filter="url(#shadow)"/>
  <path d="M420 408V432M408 420H432" stroke="white" stroke-width="4" stroke-linecap="round"/>
  
  <!-- Connection indicator dots -->
  <circle cx="100" cy="100" r="6" fill="#10B981">
    <animate attributeName="opacity" values="1;0.3;1" dur="2s" repeatCount="indefinite"/>
  </circle>
  <circle cx="120" cy="100" r="6" fill="#3B82F6">
    <animate attributeName="opacity" values="0.3;1;0.3" dur="2s" repeatCount="indefinite" begin="0.5s"/>
  </circle>
  <circle cx="140" cy="100" r="6" fill="#8B5CF6">
    <animate attributeName="opacity" values="1;0.3;1" dur="2s" repeatCount="indefinite" begin="1s"/>
  </circle>
</svg> 